# xmcd
#
# Track frame offsets: 
#        150
#        30087
#        53222
#        87010
#        122217
#        150603
#
# Disc length: 2262 seconds
#
# Revision: 0
# Processed by: cddbd v1.5.2PL0 Copyright (c) Steve Scherf et al.
# Submitted via: ExactAudioCopy v0.95b4
#
DISCID=3b08d406
DTITLE=Fatback - Hotbox
DYEAR=1980
DGENRE=Funk
TTITLE0=Hot Box
TTITLE1=Come And Get The Love
TTITLE2=Love Spell
TTITLE3=Gotta Get My Hands On Some (Money)
TTITLE4=Backstrokin'
TTITLE5=Street Band
EXTD=
EXTT0=
EXTT1=
EXTT2=
EXTT3=
EXTT4=
EXTT5=
PLAYORDER=
